<svg width="212" height="23" viewBox="0 0 212 23" fill="none" xmlns="http://www.w3.org/2000/svg">
<path d="M9.03027 17.1572H30.7021V0.0693359H39.7324V22.4365H0V0.0693359H9.03027V17.1572Z" fill="white"/>
<path d="M74.4634 0.0933228H82.7993V22.4595H73.769V5.32574H67.9341V14.0777H58.4868V5.32574H52.0972V22.4136H43.0669V0.0464478H74.4634V0.0933228Z" fill="white"/>
<path d="M125.866 6.10352e-05V22.5059H86.1333V6.10352e-05H125.866ZM95.1636 13.8926V17.2266H116.835V13.8926H95.1636ZM95.1636 5.27936V8.61334H116.835V5.27936H95.1636Z" fill="white"/>
<path d="M168.932 0V13.8926H155.334L160.226 17.2266H168.932V22.5059H156.151V22.4951L143.536 13.8926H138.23V22.3672H129.2V8.61328H159.902V5.2793H129.2V0H168.932Z" fill="white"/>
<path d="M211.999 0.0693359V22.4365H202.969V13.9619H181.297V22.4365H172.267V0.0693359H211.999ZM181.297 5.34863V8.68262H202.969V5.34863H181.297Z" fill="white"/>
</svg>
